<svg xmlns="http://www.w3.org/2000/svg" viewBox="0 0 200 200"><rect width="200" height="200" fill="#f0ead9"/><ellipse cx="100" cy="180" rx="46" ry="5" fill="#000" fill-opacity=".09"/><path d="M92 30h16v22c0 24 26 28 26 52v66a8 8 0 0 1-8 8H74a8 8 0 0 1-8-8v-66c0-24 26-28 26-52z" fill="#26392c"/><path d="M90 18h20v26c0 14 10 20 14 30H76c4-10 14-16 14-30z" fill="#c9a24a"/><rect x="88" y="40" width="24" height="5" rx="2" fill="#a8822f"/><rect x="73" y="110" width="5" height="60" rx="2.5" fill="#fff" fill-opacity=".18"/><rect x="76" y="126" width="48" height="32" rx="2" fill="#141414"/><circle cx="100.0" cy="139.0" r="7" fill="none" stroke="#d4b25e" stroke-width="2"/><circle cx="100.0" cy="139.0" r="2.5" fill="#d4b25e"/><rect x="83" y="150" width="34" height="2" rx="1" fill="#d4b25e" fill-opacity=".7"/></svg>